<svg width="100" height="18" viewBox="0 0 100 18" fill="none" xmlns="http://www.w3.org/2000/svg">
<path d="M4.84368 17.487V4.29589H0.761902V0.637221H13.2063V4.29589H9.2739V17.487H4.84368Z" fill="#332E32"/>
<path d="M18.7817 17.7857C17.3547 17.7857 16.1849 17.5617 15.2723 17.1137C14.3597 16.6657 13.6794 15.9522 13.2314 14.9732C12.8 13.9943 12.5843 12.7249 12.5843 11.1652C12.5843 9.62211 12.8083 8.37767 13.2563 7.43189C13.7043 6.48611 14.3846 5.78922 15.2972 5.34122C16.2264 4.89322 17.3879 4.66922 18.7817 4.66922C20.1754 4.66922 21.3286 4.89322 22.2412 5.34122C23.1538 5.78922 23.8341 6.48611 24.2821 7.43189C24.7301 8.37767 24.9541 9.62211 24.9541 11.1652C24.9541 12.7249 24.7384 13.9943 24.307 14.9732C23.8756 15.9522 23.2036 16.6657 22.291 17.1137C21.3784 17.5617 20.2086 17.7857 18.7817 17.7857ZM18.7817 14.2763C19.296 14.2763 19.6777 14.1768 19.9265 13.9777C20.192 13.7786 20.3745 13.4467 20.4741 12.9821C20.5737 12.5175 20.6234 11.9119 20.6234 11.1652C20.6234 10.402 20.5654 9.80463 20.4492 9.37322C20.3331 8.94181 20.1422 8.63485 19.8768 8.45233C19.6279 8.25322 19.2628 8.15367 18.7817 8.15367C18.3005 8.15367 17.9271 8.25322 17.6617 8.45233C17.3962 8.63485 17.2054 8.95011 17.0892 9.39811C16.9731 9.82952 16.915 10.4186 16.915 11.1652C16.915 11.9119 16.9648 12.5175 17.0643 12.9821C17.1639 13.4467 17.3464 13.7786 17.6119 13.9777C17.8774 14.1768 18.2673 14.2763 18.7817 14.2763Z" fill="#332E32"/>
<path d="M26.7187 17.487V0.637221H33.4387C34.8159 0.637221 35.9856 0.811444 36.948 1.15989C37.9104 1.50833 38.6819 2.031 39.2627 2.72789C39.86 3.40818 40.2914 4.2627 40.5569 5.29144C40.8224 6.30359 40.9551 7.47337 40.9551 8.80078C40.9551 10.1448 40.8307 11.3477 40.5818 12.4097C40.3329 13.4716 39.9264 14.3842 39.3622 15.1474C38.7981 15.9107 38.0431 16.4914 37.0973 16.8897C36.1516 17.2879 34.9901 17.487 33.6129 17.487H26.7187ZM31.1489 13.8283H33.2893C33.9862 13.8283 34.5421 13.7039 34.9569 13.455C35.3883 13.2061 35.7119 12.8577 35.9276 12.4097C36.1433 11.9617 36.2843 11.4307 36.3507 10.8168C36.4171 10.2029 36.4502 9.53085 36.4502 8.80078C36.4502 8.10389 36.4088 7.48167 36.3258 6.93411C36.2428 6.36996 36.0935 5.88878 35.8778 5.49055C35.6621 5.09233 35.3468 4.79367 34.932 4.59456C34.5172 4.39544 33.9696 4.29589 33.2893 4.29589H31.1489V13.8283Z" fill="#332E32"/>
<path d="M48.556 17.7857C47.129 17.7857 45.9592 17.5617 45.0466 17.1137C44.134 16.6657 43.4537 15.9522 43.0057 14.9732C42.5743 13.9943 42.3586 12.7249 42.3586 11.1652C42.3586 9.62211 42.5826 8.37767 43.0306 7.43189C43.4786 6.48611 44.1589 5.78922 45.0715 5.34122C46.0007 4.89322 47.1622 4.66922 48.556 4.66922C49.9497 4.66922 51.1029 4.89322 52.0155 5.34122C52.9281 5.78922 53.6084 6.48611 54.0564 7.43189C54.5044 8.37767 54.7284 9.62211 54.7284 11.1652C54.7284 12.7249 54.5127 13.9943 54.0813 14.9732C53.6499 15.9522 52.9779 16.6657 52.0653 17.1137C51.1527 17.5617 49.9829 17.7857 48.556 17.7857ZM48.556 14.2763C49.0703 14.2763 49.452 14.1768 49.7008 13.9777C49.9663 13.7786 50.1488 13.4467 50.2484 12.9821C50.348 12.5175 50.3977 11.9119 50.3977 11.1652C50.3977 10.402 50.3397 9.80463 50.2235 9.37322C50.1074 8.94181 49.9165 8.63485 49.6511 8.45233C49.4022 8.25322 49.0371 8.15367 48.556 8.15367C48.0748 8.15367 47.7014 8.25322 47.436 8.45233C47.1705 8.63485 46.9797 8.95011 46.8635 9.39811C46.7474 9.82952 46.6893 10.4186 46.6893 11.1652C46.6893 11.9119 46.7391 12.5175 46.8386 12.9821C46.9382 13.4467 47.1207 13.7786 47.3862 13.9777C47.6517 14.1768 48.0416 14.2763 48.556 14.2763Z" fill="#332E32"/>
<path d="M62.0347 17.487V0.637221H66.4649V13.8283H72.6373V17.487H62.0347Z" fill="#332E32"/>
<path d="M73.9901 17.487V4.96789H78.2461V17.487H73.9901ZM73.9652 3.47456V0.214111H78.271V3.47456H73.9652Z" fill="#332E32"/>
<path d="M85.359 17.7857C84.6787 17.7857 83.9984 17.7525 83.3182 17.6861C82.6544 17.6197 82.0405 17.5451 81.4764 17.4621C80.9288 17.3626 80.4808 17.2713 80.1324 17.1883L80.2568 14.1768C80.6882 14.2266 81.1777 14.2846 81.7253 14.351C82.2894 14.4174 82.837 14.4754 83.3679 14.5252C83.9155 14.5584 84.3635 14.575 84.7119 14.575C85.0936 14.575 85.4005 14.5501 85.6328 14.5003C85.8817 14.4506 86.0642 14.3593 86.1804 14.2266C86.2965 14.0938 86.3546 13.9196 86.3546 13.7039C86.3546 13.5214 86.2882 13.3803 86.1555 13.2808C86.0393 13.1812 85.8153 13.09 85.4835 13.007C85.1516 12.924 84.6622 12.8411 84.015 12.7581C83.0859 12.6254 82.3226 12.4263 81.7253 12.1608C81.1445 11.8787 80.7131 11.4805 80.431 10.9661C80.1656 10.4517 80.0328 9.77144 80.0328 8.92522C80.0328 7.81352 80.2651 6.9507 80.7297 6.33678C81.1943 5.72285 81.8165 5.29144 82.5964 5.04256C83.3928 4.79367 84.2722 4.66922 85.2346 4.66922C85.8983 4.66922 86.5537 4.70241 87.2008 4.76878C87.8645 4.81855 88.4702 4.89322 89.0177 4.99278C89.5819 5.07574 90.0382 5.1587 90.3866 5.24167L90.2622 8.35278C89.8307 8.303 89.333 8.25322 88.7688 8.20344C88.2047 8.13707 87.6571 8.0873 87.1262 8.05411C86.5952 8.02093 86.1472 8.00433 85.7822 8.00433C85.4835 8.00433 85.218 8.02922 84.9857 8.079C84.77 8.12878 84.6041 8.21174 84.4879 8.32789C84.3718 8.42744 84.3137 8.57678 84.3137 8.77589C84.3137 8.92522 84.3635 9.04967 84.463 9.14922C84.5792 9.24878 84.7949 9.34004 85.1102 9.423C85.4254 9.48937 85.89 9.56404 86.5039 9.647C87.5161 9.77974 88.3291 9.98715 88.943 10.2692C89.557 10.5513 89.9967 10.9578 90.2622 11.4888C90.5276 12.0031 90.6604 12.7 90.6604 13.5794C90.6604 14.6082 90.453 15.4295 90.0382 16.0434C89.6399 16.6574 89.0426 17.1054 88.2462 17.3874C87.4663 17.6529 86.5039 17.7857 85.359 17.7857Z" fill="#332E32"/>
<path d="M96.9684 17.7857C96.0226 17.7857 95.251 17.6612 94.6537 17.4123C94.0564 17.1469 93.6249 16.6906 93.3595 16.0434C93.094 15.3797 92.9612 14.4589 92.9612 13.2808V8.45233H91.7168V4.96789H92.9612V2.00611H97.2421V4.96789H99.9301V8.45233H97.2421V12.2354C97.2421 12.7166 97.267 13.0983 97.3168 13.3803C97.3666 13.6458 97.4744 13.8366 97.6404 13.9528C97.8063 14.0523 98.0552 14.1021 98.387 14.1021C98.47 14.1021 98.611 14.1021 98.8101 14.1021C99.0092 14.0855 99.2166 14.0772 99.4324 14.0772C99.648 14.0606 99.8057 14.044 99.9052 14.0274L99.9799 17.4123C99.7144 17.4621 99.3909 17.5119 99.0092 17.5617C98.6442 17.628 98.2792 17.6778 97.9141 17.711C97.5491 17.7608 97.2338 17.7857 96.9684 17.7857Z" fill="#332E32"/>
</svg>
